<?xml version="1.0" encoding="utf-8"?>
<!-- Generator: Adobe Illustrator 18.1.1, SVG Export Plug-In . SVG Version: 6.00 Build 0)  -->
<svg version="1.1" id="Layer_1" xmlns="http://www.w3.org/2000/svg" xmlns:xlink="http://www.w3.org/1999/xlink" x="0px" y="0px"
	 viewBox="0 0 698 137.1" enable-background="new 0 0 698 137.1" xml:space="preserve">
<g>
	<path fill="#BE4447" d="M234.1,91.6c4.1-2,7.6-5.4,7.6-10c0-3.2-2.8-6.7-5.3-8.6c-3.1-2.3-7.6-2.6-11.2-2.6c-3.1,0-7.2,0.2-8.8,1.7
		c-0.8,0.7-0.9,2.2-0.9,3.4v17.8h7.2C226.5,93.3,230.6,93.2,234.1,91.6z"/>
	<path fill="#BE4447" d="M245.5,137.1l-24-32.7h-6.1v13.2c0,7.8,0.8,10.3,9.5,10.9l1.6,0.1v8.5H245.5z"/>
	<path fill="#BE4447" d="M0,0v137.1h24.6v-8.5c9.6-0.6,9.9-3.1,9.9-11.2V80.5c0-7.9-0.2-10.5-9.9-11.2v-9.4h65.6L101,83.4l-8,3.9
		c-7.6-10.4-15.6-16.9-28.9-16.9c-8.8,0-9.3,2.3-9.3,9.1v11.8h4.7c2.9,0,6.2-0.2,7.7-3c1.7-2.8,1.9-6.3,2.4-9.5H78v37.2h-8.5
		c-1.3-10.3-2.1-13.5-11.9-13.5c-0.9,0-1.8,0.1-2.9,0.1v15.8c0,2.3,0.1,5.6,1.4,7.3c1.6,2.2,6.1,2.7,8.6,2.9H66v8.5h36.5v-8.5
		l1.9-0.3c7-1.3,7.2-3.8,7.2-10.9V77.4c0-4.4-0.5-6.7-6.5-7.7l-2.6-0.5v-9.4h66.2L180,83.6l-7.8,3.8c-6.9-10.2-16.1-17-28.9-17
		c-2.2,0-8.7,0.1-10.2,2.1c-1,1.4-1.1,4.4-1.1,6.9v11.2h5.7c2.8,0,5.6-0.2,7.2-2.4c1.6-2.4,1.9-7.1,1.9-10.1h8.9v35.6h-8.9
		c-0.3-3.2-1.2-6.9-3-9.6c-1.8-2.7-5.6-2.9-8.7-2.9H132v14.8c0,3.1,0,7.3,0.5,8.6c1,2.9,6.1,2.9,8.5,2.9c16.2,0,25.3-7.6,34.3-20.4
		l8,3.9L171,137.1h14.2v-8.5l0.9-0.1c8.8-0.6,8.9-2.6,8.9-10.8V79.6c0-7.2-0.1-9.8-8.5-10.2l-1.4-0.1v-9.4h43.2
		c7.1,0,15.2,0.2,22,2.6c7.9,2.9,13.3,9.4,13.3,18c0,11.1-8.5,19.5-19,21.4l13.6,17.5c4.5,5.8,6.2,8.4,14.3,9.1v8.5h26.5
		c-15.3-5.8-25.3-19.9-25.3-38c0-23.7,14.9-41.2,39.3-41.2c6.5,0,13.2,1.5,19,4.6l1.4-2.6h6.9l10.2,27.1l-8.8,3.2l-0.5-0.6
		c-2.8-4.7-5.5-9.6-9.4-13.5c-4.1-4.1-9.8-7.5-15.7-7.5c-15.7,0-20.3,17.7-20.3,30.2c0,6.2,1.7,14.7,5.2,20c3.7,6,9.9,9.6,17,9.6
		c11.3,0,20.3-8.6,25.3-18.1l9.4,4.9c-4,10.7-12.3,18.2-22.4,22h25.9v-8.5l2-0.3c7-1.3,7.2-3.8,7.2-10.9V77.4c0-4.4-0.5-6.7-6.5-7.7
		l-2.6-0.5v-9.4h66.2L434,83.6l-7.8,3.8c-6.9-10.2-16.1-17-28.9-17c-2.2,0-8.7,0.1-10.2,2.1c-1,1.4-1.2,4.4-1.2,6.9v11.2h5.7
		c2.8,0,5.6-0.2,7.2-2.4c1.6-2.4,1.9-7.1,1.9-10.1h9v35.6h-9c-0.3-3.2-1.1-6.9-3-9.6c-1.8-2.7-5.6-2.9-8.7-2.9h-3.2v14.8
		c0,3.1,0,7.3,0.5,8.6c1,2.9,6.1,2.9,8.5,2.9c16.2,0,25.3-7.6,34.3-20.4l8,3.9L425,137.1h14.6v-8.5c9.4-0.9,9.5-3,9.5-11.2V80.5
		c0-8.3,0-10.2-9.5-11.2v-9.4h40.4v9.4c-3.2,0.2-7.2,0.7-9,2.4c-1.4,1.3-1.5,3.7-1.5,6v44c0,4.2,0.6,5.7,7,5.7
		c13.3,0,23.6-9.7,29.6-20.9l7.9,4.1l-11.6,26.4h11.2v-8.5c9.4-0.9,9.5-3,9.5-11.2V80.5c0-8.3,0-10.2-9.5-11.2v-9.4h40.4v9.4
		c-3.2,0.2-7.2,0.7-9,2.4c-1.4,1.3-1.5,3.7-1.5,6v44c0,4.2,0.6,5.7,7,5.7c13.3,0,23.6-9.7,29.6-20.9l7.9,4.1l-11.6,26.4H698V0H0z"/>
</g>
</svg>
